# xmcd CD database file
#
# Track frame offsets:
#	150
#	28627
#	48953
#	73194
#	97230
#	101765
#	119712
#	141245
#	158498
#	176269
#	196117
#	207341
#	233291
#	241575
#
# Disc length: 3611 seconds
#
# Revision: 0
# Processed by: cddbd v1.4PL0 Copyright (c) Steve Scherf et al.
# Submitted via: CDex 1.50
#
DISCID=b80e190e
DTITLE=The Land Of Nod - Archive:02 CD:2
DYEAR=2001
DGENRE=New Age
TTITLE0=The Land Of Nod (Earthrise) (Out-take)
TTITLE1=Quadrant Zero (Out-take)
TTITLE2=Object Reality (Remix)
TTITLE3=Noose Of Ice (Live)
TTITLE4=Drop
TTITLE5=Chronicle Blueprint #2
TTITLE6=Lake Merrit
TTITLE7=Ice Station Nod (Live)
TTITLE8=Reality Channel (Live)
TTITLE9=Chronicle Blueprint (Live)
TTITLE10=Orientation Point (Live)
TTITLE11=Noose Of Ice (Live)
TTITLE12=Mont Ventoux (Edit) (Live)
TTITLE13=The Land Of Nod (Earthrise) (Live)
EXTD=YEAR: 2001
EXTT0=
EXTT1=
EXTT2=
EXTT3=
EXTT4=
EXTT5=
EXTT6=
EXTT7=
EXTT8=
EXTT9=
EXTT10=
EXTT11=
EXTT12=
EXTT13=
PLAYORDER=
